<svg width="18" height="18" viewBox="0 0 18 18" fill="none" xmlns="http://www.w3.org/2000/svg">
<path fill-rule="evenodd" clip-rule="evenodd" d="M14.4061 12.4476C14.8962 12.4467 15.3708 12.2758 15.7491 11.9641C16.1274 11.6523 16.3859 11.2189 16.4806 10.7378L17.5433 5.42111C17.6049 5.11296 17.5974 4.79497 17.5215 4.49005C17.4455 4.18513 17.303 3.90085 17.1041 3.65763C16.9052 3.41442 16.655 3.21826 16.3713 3.08339C16.0876 2.94852 15.7776 2.87825 15.4635 2.87759H4.88284V1.81426C4.88284 1.53225 4.77085 1.2618 4.57155 1.06239C4.37225 0.862975 4.10195 0.750931 3.82009 0.750931H1.70417C1.42231 0.750931 1.15198 0.862975 0.952676 1.06239C0.753373 1.2618 0.641422 1.53225 0.641422 1.81426C0.641422 2.09627 0.753373 2.36672 0.952676 2.56613C1.15198 2.76555 1.42231 2.87759 1.70417 2.87759H2.76691V13.5109C2.34613 13.509 1.93425 13.6321 1.58345 13.8647C1.23266 14.0972 0.958725 14.4287 0.796384 14.8171C0.634043 15.2055 0.59059 15.6334 0.67152 16.0466C0.752449 16.4597 0.954119 16.8396 1.25099 17.1379C1.54786 17.4363 1.92657 17.6398 2.33913 17.7226C2.75169 17.8055 3.17957 17.764 3.56851 17.6033C3.95745 17.4426 4.28996 17.17 4.52394 16.8201C4.75792 16.4701 4.88283 16.0586 4.88284 15.6376H12.2891C12.2908 16.0561 12.4164 16.4648 12.65 16.812C12.8836 17.1592 13.2149 17.4294 13.6018 17.5884C13.9888 17.7474 14.4142 17.7882 14.8243 17.7055C15.2344 17.6228 15.6108 17.4204 15.906 17.1238C16.2012 16.8272 16.402 16.4498 16.483 16.0392C16.564 15.6285 16.5216 15.2031 16.3611 14.8165C16.2006 14.43 15.9293 14.0996 15.5813 13.8673C15.2334 13.6349 14.8244 13.5109 14.4061 13.5109H4.88284V12.4476H14.4061ZM15.4688 5.00425L14.4061 10.3209H4.88284V5.00425H15.4635H15.4688Z" fill="#33A0FF"/>
</svg>
