<svg class="svg-icon" style="width: 1em; height: 1em;vertical-align: middle;fill: currentColor;overflow: hidden;" viewBox="0 0 1024 1024" version="1.1" xmlns="http://www.w3.org/2000/svg"><path d="M899.413333 298.666667a85.333333 85.333333 0 0 0-72.533333-42.666667H280.746667L256 159.573333A42.666667 42.666667 0 0 0 213.333333 128H128a42.666667 42.666667 0 0 0 0 85.333333h52.906667L298.666667 651.093333A42.666667 42.666667 0 0 0 341.333333 682.666667h384a42.666667 42.666667 0 0 0 37.973334-23.466667l139.946666-279.893333A85.333333 85.333333 0 0 0 899.413333 298.666667z"  /><path d="M320 832m-64 0a64 64 0 1 0 128 0 64 64 0 1 0-128 0Z"  /><path d="M746.666667 832m-64 0a64 64 0 1 0 128 0 64 64 0 1 0-128 0Z"  /></svg>